<mxfile host="65bd71144e">
    <diagram id="qmC5qkNwEReP4GPOgxld" name="Page-1">
        <mxGraphModel dx="773" dy="563" grid="1" gridSize="10" guides="1" tooltips="1" connect="1" arrows="1" fold="1" page="1" pageScale="1" pageWidth="850" pageHeight="1100" math="0" shadow="0">
            <root>
                <mxCell id="0"/>
                <mxCell id="1" parent="0"/>
                <mxCell id="2" value="&lt;font style=&quot;font-size: 14px;&quot;&gt;Register&lt;br&gt;&lt;/font&gt;&lt;br&gt;username&lt;br&gt;email&lt;br&gt;password" style="shape=ext;double=1;rounded=0;whiteSpace=wrap;html=1;" vertex="1" parent="1">
                    <mxGeometry x="40" y="70" width="160" height="200" as="geometry"/>
                </mxCell>
                <mxCell id="3" value="&lt;font style=&quot;font-size: 14px;&quot;&gt;Login&lt;br&gt;&lt;/font&gt;&lt;br&gt;username&lt;br&gt;email&lt;br&gt;password" style="shape=ext;double=1;rounded=0;whiteSpace=wrap;html=1;" vertex="1" parent="1">
                    <mxGeometry x="270" y="70" width="240" height="200" as="geometry"/>
                </mxCell>
            </root>
        </mxGraphModel>
    </diagram>
</mxfile>